<?xml version="1.0" encoding="utf-8"?>
<!-- Generator: Adobe Illustrator 18.1.1, SVG Export Plug-In . SVG Version: 6.00 Build 0)  -->
<svg version="1.1" id="Layer_1" xmlns="http://www.w3.org/2000/svg" xmlns:xlink="http://www.w3.org/1999/xlink" x="0px" y="0px"
	 viewBox="0 0 155.9 249" enable-background="new 0 0 155.9 249" xml:space="preserve">
<g>
	<rect x="0" y="0" fill="#48597D" width="155.9" height="249"/>
	<g>
		<g>
			<g>
				<path fill="#F9F9FA" d="M20.1,233.6l-2.3-3.1h-2.3v3.1h-0.9v-8H18c1.8,0,2.9,0.9,2.9,2.4c0,1.3-0.9,2.1-2.2,2.3l2.5,3.3H20.1z
					 M17.9,226.5h-2.5v3.2h2.5c1.2,0,2.1-0.6,2.1-1.7C20,227.1,19.2,226.5,17.9,226.5z"/>
				<path fill="#F9F9FA" d="M28.7,226.5h-4.9v2.7h4.4v0.8h-4.4v2.8h5v0.8h-5.9v-8h5.8V226.5z"/>
				<path fill="#F9F9FA" d="M38.2,233.6h-1l-1-2.1h-4.4l-1,2.1h-0.9l3.7-8h0.9L38.2,233.6z M34.1,226.7l-1.8,4.1h3.7L34.1,226.7z"/>
				<path fill="#F9F9FA" d="M39.8,225.7h0.9v7.2h4.6v0.8h-5.5V225.7z"/>
				<path fill="#F9F9FA" d="M56.2,226.5h-4.9v2.7h4.4v0.8h-4.4v2.8h5v0.8h-5.9v-8h5.8V226.5z"/>
				<path fill="#F9F9FA" d="M61.1,229.2c1.8,0.4,2.6,1,2.6,2.3c0,1.4-1.2,2.3-2.8,2.3c-1.3,0-2.3-0.4-3.3-1.3l0.6-0.7
					c0.8,0.8,1.7,1.1,2.8,1.1c1.1,0,1.8-0.6,1.8-1.4c0-0.8-0.4-1.2-2.1-1.5c-1.9-0.4-2.7-1-2.7-2.3c0-1.3,1.1-2.2,2.7-2.2
					c1.2,0,2,0.3,2.8,1l-0.5,0.7c-0.7-0.6-1.5-0.9-2.3-0.9c-1,0-1.7,0.6-1.7,1.3C58.9,228.4,59.3,228.8,61.1,229.2z"/>
				<path fill="#F9F9FA" d="M68.4,233.6h-0.9v-7.2h-2.7v-0.8h6.4v0.8h-2.7V233.6z"/>
				<path fill="#F9F9FA" d="M79.3,233.6h-1l-0.9-2.1H73l-1,2.1h-0.9l3.7-8h0.9L79.3,233.6z M75.2,226.7l-1.8,4.1h3.7L75.2,226.7z"/>
				<path fill="#F9F9FA" d="M83,233.6H82v-7.2h-2.7v-0.8h6.4v0.8H83V233.6z"/>
				<path fill="#F9F9FA" d="M93.2,226.5h-4.9v2.7h4.4v0.8h-4.4v2.8h5v0.8h-5.9v-8h5.8V226.5z"/>
				<path fill="#F9F9FA" d="M102.4,233.8c-2.5,0-4.1-1.8-4.1-4.1c0-2.2,1.6-4.1,4.1-4.1c1.4,0,2.2,0.4,3,1.1l-0.6,0.7
					c-0.6-0.5-1.3-0.9-2.5-0.9c-1.8,0-3.1,1.5-3.1,3.3c0,1.9,1.2,3.3,3.2,3.3c0.9,0,1.8-0.4,2.3-0.8v-2h-2.5v-0.8h3.3v3.2
					C104.9,233.2,103.7,233.8,102.4,233.8z"/>
				<path fill="#F9F9FA" d="M113.2,233.6l-2.3-3.1h-2.3v3.1h-0.9v-8h3.5c1.8,0,2.9,0.9,2.9,2.4c0,1.3-0.9,2.1-2.2,2.3l2.5,3.3H113.2
					z M111.1,226.5h-2.5v3.2h2.5c1.2,0,2.1-0.6,2.1-1.7C113.2,227.1,112.4,226.5,111.1,226.5z"/>
				<path fill="#F9F9FA" d="M119.8,233.8c-2.5,0-4.1-1.9-4.1-4.1c0-2.2,1.7-4.1,4.1-4.1c2.5,0,4.1,1.9,4.1,4.1
					C123.9,231.9,122.3,233.8,119.8,233.8z M119.8,226.4c-1.8,0-3.2,1.5-3.2,3.3c0,1.8,1.3,3.3,3.2,3.3c1.8,0,3.2-1.5,3.2-3.3
					C123,227.8,121.6,226.4,119.8,226.4z"/>
				<path fill="#F9F9FA" d="M132.5,230.2c0,2.3-1.4,3.5-3.4,3.5c-2,0-3.4-1.2-3.4-3.5v-4.6h0.9v4.6c0,1.7,0.9,2.7,2.5,2.7
					c1.5,0,2.4-0.9,2.4-2.6v-4.6h0.9V230.2z"/>
				<path fill="#F9F9FA" d="M137.5,230.8h-2v2.8h-0.9v-8h3c1.8,0,3,1,3,2.5C140.7,229.9,139.2,230.8,137.5,230.8z M137.6,226.5h-2
					v3.5h2c1.3,0,2.2-0.7,2.2-1.8C139.8,227.1,138.9,226.5,137.6,226.5z"/>
			</g>
		</g>
		<g>
			<g>
				<path fill="#F9F9FA" d="M42,219.5c-4.7,0-8.1-3.6-8.1-8.2c0-4.6,3.4-8.3,8.2-8.3c2.9,0,4.7,1,6.3,2.5l-1.2,1.3
					c-1.4-1.3-2.9-2.2-5.1-2.2c-3.6,0-6.3,2.9-6.3,6.6c0,3.7,2.7,6.6,6.3,6.6c2.2,0,3.7-0.8,5.2-2.3l1.2,1.2
					C46.7,218.4,44.9,219.5,42,219.5z"/>
				<path fill="#F9F9FA" d="M62.8,219.3l-4.7-6.2h-4.6v6.2h-1.8v-16h7c3.6,0,5.9,1.9,5.9,4.8c0,2.7-1.9,4.2-4.4,4.7l5,6.5H62.8z
					 M58.4,204.9h-5v6.5h5c2.4,0,4.2-1.2,4.2-3.3C62.6,206.1,61.1,204.9,58.4,204.9z"/>
				<path fill="#F9F9FA" d="M75.9,219.5c-4.9,0-8.2-3.8-8.2-8.2c0-4.4,3.4-8.3,8.3-8.3c4.9,0,8.2,3.8,8.2,8.2
					C84.1,215.7,80.8,219.5,75.9,219.5z M75.9,204.7c-3.7,0-6.3,2.9-6.3,6.6c0,3.7,2.7,6.6,6.4,6.6c3.7,0,6.3-2.9,6.3-6.6
					C82.2,207.6,79.6,204.7,75.9,204.7z"/>
				<path fill="#F9F9FA" d="M97,203.2h1.5l4.4,13.4l4.6-13.3h1.9l-5.8,16.1h-1.6l-4.4-13l-4.5,13h-1.5l-5.8-16.1h2l4.6,13.3
					L97,203.2z"/>
				<path fill="#F9F9FA" d="M124.7,203.3h1.8v16H125l-10.5-13.1v13.1h-1.8v-16h1.7l10.2,12.8V203.3z"/>
			</g>
		</g>
	</g>
	<g>
		<path fill="#FFFFFF" d="M45.3,182.4H45c0,0-2,1.2-2.7,2.4c-0.7,1.2-0.7,3.7-0.7,3.7h76.3c0,0-0.2-2.4-0.8-3.6
			c-0.5-1-2-2.1-2.5-2.4c0-0.1,0-0.2,0-0.2H45.3C45.3,182.3,45.3,182.3,45.3,182.4z"/>
		<path fill="#FFFFFF" d="M109.2,55.8c1.4-1.7,2.6-3.9,2.6-6.1c0-5-5.1-9-11.4-9c-1.8,0-4.7,0-6.5,0l-28.4,0c-1.8,0-4.7,0-6.5,0
			c-6.3,0-11.4,4-11.4,9c0,2.2,1.2,4.4,2.6,6.1c1.8,2.2,12.6,14.6,14,16.3h30.9C95.2,72.1,107.3,58.1,109.2,55.8z"/>
		<path fill="#FFFFFF" d="M94,38c0-1.5-1.5-2.8-3.3-2.8c-2.9,0-18.3,0-21.9,0c-1.8,0-3.3,1.2-3.3,2.8c0,0.4,0,1.3,0,1.9H94
			C94,39.3,94,38.5,94,38z"/>
		<path fill="#FFFFFF" d="M118.8,168.8c-0.4-4.9-3.8-10.3-7.4-14.4c0-0.4-0.2-0.4-0.3-0.7H49.2h0c0,0,0,0.1,0,0.1l-0.1,0.4
			c-3.1,3.8-7.8,8.7-8.2,13.6c-0.5,4.9,1.5,9.6,4.6,12.8h0.1c-0.1,0.2-0.2,0.5-0.3,0.7h69.4c0-0.4,0-0.8-0.1-1.3
			C117.5,177.1,119.1,173.4,118.8,168.8z"/>
		<g>
			<rect x="60.9" y="89.5" fill="#FFFFFF" width="38" height="8.3"/>
			<ellipse fill="#FFFFFF" cx="98.8" cy="93.6" rx="4.1" ry="4.2"/>
			<path fill="#FFFFFF" d="M65,93.6c0,2.3-1.9,4.2-4.1,4.2c-2.3,0-4.1-1.9-4.1-4.2c0-2.3,1.8-4.2,4.1-4.2C63.1,89.5,65,91.3,65,93.6
				z"/>
		</g>
		<polygon fill="#FFFFFF" stroke="#FCFAFB" stroke-miterlimit="10" points="89.8,21.4 82.5,21.4 82.5,14.2 76.9,14.2 76.9,21.4 
			69.5,21.4 69.5,27 76.9,27 76.9,34.2 82.5,34.2 82.5,27 89.8,27 		"/>
		<g>
			<rect x="49" y="147.6" fill="#FFFFFF" width="61.6" height="5.4"/>
			<path fill="#FFFFFF" d="M51.6,150.3c0,1.5-1.3,2.7-2.8,2.7c-1.6,0-2.8-1.2-2.8-2.7c0-1.5,1.3-2.7,2.8-2.7
				C50.4,147.6,51.6,148.8,51.6,150.3z"/>
			<ellipse fill="#FFFFFF" cx="110.7" cy="150.3" rx="2.8" ry="2.7"/>
		</g>
		<path fill="#FFFFFF" d="M97.5,88.5H62.1c1.1-0.7,2.2-3.7,2.7-7.4c0.5-3.9,0.2-7.2-0.7-8.1l0-0.1h31c-0.9,0.9-1.1,4.3-0.4,8.2
			C95.3,84.7,96.4,87.6,97.5,88.5z"/>
		<path fill="#FFFFFF" d="M109.3,146.8H50.2c3.8-1.1,8.6-10.6,11.2-22.8c2.5-11.7,2.2-21.9-0.5-25.1l0.1-0.3h38.4l0.1,0.3
			c-3.3,1.9-3.5,13-0.5,25.7C101.5,135.7,105.8,144.6,109.3,146.8z"/>
		<path fill="none" d="M95.1,73.2"/>
	</g>
</g>
</svg>
