<?xml version="1.0" encoding="utf-8"?>
<!-- Generator: Adobe Illustrator 18.1.1, SVG Export Plug-In . SVG Version: 6.00 Build 0)  -->
<svg version="1.1" id="Layer_1" xmlns="http://www.w3.org/2000/svg" xmlns:xlink="http://www.w3.org/1999/xlink" x="0px" y="0px"
	 viewBox="0 0 151 206" enable-background="new 0 0 151 206" xml:space="preserve">
<rect x="5.9" y="5.9" opacity="0.9" fill="#48597D" width="139.3" height="194.5"/>
<g>
	<path fill="#FFFFFF" d="M47.7,168.5h-0.2c0,0-1.6,0.9-2.2,1.9c-0.5,1-0.6,3-0.6,3h61.5c0,0-0.2-2-0.6-2.9c-0.4-0.8-1.6-1.7-2-1.9
		c0-0.1,0-0.1,0-0.2h-56C47.7,168.5,47.7,168.5,47.7,168.5z"/>
	<path fill="#FFFFFF" d="M99.3,66.4c1.1-1.4,2.1-3.2,2.1-4.9c0-4-4.1-7.2-9.2-7.2c-1.5,0-3.8,0-5.2,0l-22.9,0c-1.5,0-3.8,0-5.2,0
		c-5.1,0-9.2,3.2-9.2,7.2c0,1.8,1,3.5,2.1,4.9c1.4,1.8,10.2,11.8,11.3,13.1h25C88,79.6,97.7,68.3,99.3,66.4z"/>
	<path fill="#FFFFFF" d="M86.9,52.1c0-1.2-1.2-2.2-2.6-2.2c-2.4,0-14.8,0-17.6,0c-1.5,0-2.6,1-2.6,2.2c0,0.3,0,1,0,1.5h22.9
		C86.9,53.1,86.9,52.4,86.9,52.1z"/>
	<path fill="#FFFFFF" d="M106.9,157.6c-0.3-4-3.1-8.3-6-11.6c0-0.3-0.2-0.3-0.2-0.5H50.8h0c0,0,0,0,0,0.1l-0.1,0.3
		c-2.5,3.1-6.3,7-6.6,11c-0.4,4,1.2,7.8,3.7,10.4h0.1c-0.1,0.2-0.1,0.4-0.2,0.6h56c0-0.3,0-0.6-0.1-1
		C105.9,164.3,107.2,161.3,106.9,157.6z"/>
	<g>
		<rect x="60.3" y="93.6" fill="#FFFFFF" width="30.6" height="6.7"/>
		<ellipse fill="#FFFFFF" cx="90.8" cy="96.9" rx="3.3" ry="3.4"/>
		<ellipse fill="#FFFFFF" cx="60.2" cy="97" rx="3.3" ry="3.4"/>
	</g>
	<polygon fill="#FFFFFF" stroke="#FCFAFB" stroke-miterlimit="10" points="83.6,38.7 77.7,38.7 77.7,32.9 73.2,32.9 73.2,38.7 
		67.2,38.7 67.2,43.2 73.2,43.2 73.2,49 77.7,49 77.7,43.2 83.6,43.2 	"/>
	<g>
		<rect x="50.7" y="140.5" fill="#FFFFFF" width="49.7" height="4.4"/>
		<path fill="#FFFFFF" d="M52.8,142.6c0,1.2-1,2.2-2.3,2.2c-1.3,0-2.3-1-2.3-2.2c0-1.2,1-2.2,2.3-2.2
			C51.8,140.5,52.8,141.4,52.8,142.6z"/>
		<ellipse fill="#FFFFFF" cx="100.5" cy="142.6" rx="2.3" ry="2.2"/>
	</g>
	<path fill="#FFFFFF" d="M89.8,92.8H61.3c0.9-0.6,1.8-3,2.2-6c0.4-3.1,0.2-5.8-0.6-6.5l0,0h25c-0.7,0.7-0.9,3.5-0.4,6.6
		C88,89.7,88.9,92.1,89.8,92.8z"/>
	<path fill="#FFFFFF" d="M99.3,139.8H51.6c3.1-0.9,6.9-8.6,9-18.4c2-9.4,1.8-17.7-0.4-20.2l0.1-0.2h31l0.1,0.3
		c-2.6,1.5-2.9,10.5-0.4,20.7C93,130.9,96.5,138,99.3,139.8z"/>
	<path fill="none" d="M87.9,80.4"/>
</g>
<rect x="5.9" y="5.9" fill="none" width="139.3" height="194.5"/>
</svg>
